<?xml version="1.0" encoding="UTF-8"?>
<!DOCTYPE svg PUBLIC "-//W3C//DTD SVG 1.1//EN" "http://www.w3.org/Graphics/SVG/1.1/DTD/svg11.dtd">
<svg xmlns="http://www.w3.org/2000/svg" xmlns:xlink="http://www.w3.org/1999/xlink" version="1.1" style="display:none;">

  <symbol id="icon-twitter" viewBox="0 0 24 24">
    <path d="M17.71,9.33C18.19,8.93 18.75,8.45 19,7.92C18.59,8.13 18.1,8.26 17.56,8.33C18.06,7.97 18.47,7.5 18.68,6.86C18.16,7.14 17.63,7.38 16.97,7.5C15.42,5.63 11.71,7.15 12.37,9.95C9.76,9.79 8.17,8.61 6.85,7.16C6.1,8.38 6.75,10.23 7.64,10.74C7.18,10.71 6.83,10.57 6.5,10.41C6.54,11.95 7.39,12.69 8.58,13.09C8.22,13.16 7.82,13.18 7.44,13.12C7.81,14.19 8.58,14.86 9.9,15C9,15.76 7.34,16.29 6,16.08C7.15,16.81 8.46,17.39 10.28,17.31C14.69,17.11 17.64,13.95 17.71,9.33M12,2A10,10 0 0,1 22,12A10,10 0 0,1 12,22A10,10 0 0,1 2,12A10,10 0 0,1 12,2Z" />
  </symbol>

  <symbol id="icon-github" viewBox="0 0 24 24">
    <path d="M12,2A10,10 0 0,0 2,12C2,16.42 4.87,20.17 8.84,21.5C9.34,21.58 9.5,21.27 9.5,21C9.5,20.77 9.5,20.14 9.5,19.31C6.73,19.91 6.14,17.97 6.14,17.97C5.68,16.81 5.03,16.5 5.03,16.5C4.12,15.88 5.1,15.9 5.1,15.9C6.1,15.97 6.63,16.93 6.63,16.93C7.5,18.45 8.97,18 9.54,17.76C9.63,17.11 9.89,16.67 10.17,16.42C7.95,16.17 5.62,15.31 5.62,11.5C5.62,10.39 6,9.5 6.65,8.79C6.55,8.54 6.2,7.5 6.75,6.15C6.75,6.15 7.59,5.88 9.5,7.17C10.29,6.95 11.15,6.84 12,6.84C12.85,6.84 13.71,6.95 14.5,7.17C16.41,5.88 17.25,6.15 17.25,6.15C17.8,7.5 17.45,8.54 17.35,8.79C18,9.5 18.38,10.39 18.38,11.5C18.38,15.32 16.04,16.16 13.81,16.41C14.17,16.72 14.5,17.33 14.5,18.26C14.5,19.6 14.5,20.68 14.5,21C14.5,21.27 14.66,21.59 15.17,21.5C19.14,20.16 22,16.42 22,12A10,10 0 0,0 12,2Z" />
  </symbol>

  <symbol id="icon-dribbble" viewBox="0 0 24 24">
    <path d="M16.42,18.42C16,16.5 15.5,14.73 15,13.17C15.5,13.1 16,13.06 16.58,13.06H16.6V13.06H16.6C17.53,13.06 18.55,13.18 19.66,13.43C19.28,15.5 18.08,17.27 16.42,18.42M12,19.8C10.26,19.8 8.66,19.23 7.36,18.26C7.64,17.81 8.23,16.94 9.18,16.04C10.14,15.11 11.5,14.15 13.23,13.58C13.82,15.25 14.36,17.15 14.77,19.29C13.91,19.62 13,19.8 12,19.8M4.2,12C4.2,11.96 4.2,11.93 4.2,11.89C4.42,11.9 4.71,11.9 5.05,11.9H5.06C6.62,11.89 9.36,11.76 12.14,10.89C12.29,11.22 12.44,11.56 12.59,11.92C10.73,12.54 9.27,13.53 8.19,14.5C7.16,15.46 6.45,16.39 6.04,17C4.9,15.66 4.2,13.91 4.2,12M8.55,5C9.1,5.65 10.18,7.06 11.34,9.25C9,9.96 6.61,10.12 5.18,10.12C5.14,10.12 5.1,10.12 5.06,10.12H5.05C4.81,10.12 4.6,10.12 4.43,10.11C5,7.87 6.5,6 8.55,5M12,4.2C13.84,4.2 15.53,4.84 16.86,5.91C15.84,7.14 14.5,8 13.03,8.65C12,6.67 11,5.25 10.34,4.38C10.88,4.27 11.43,4.2 12,4.2M18.13,7.18C19.1,8.42 19.71,9.96 19.79,11.63C18.66,11.39 17.6,11.28 16.6,11.28V11.28H16.59C15.79,11.28 15.04,11.35 14.33,11.47C14.16,11.05 14,10.65 13.81,10.26C15.39,9.57 16.9,8.58 18.13,7.18M12,2A10,10 0 0,0 2,12A10,10 0 0,0 12,22A10,10 0 0,0 22,12A10,10 0 0,0 12,2Z" />
  </symbol>

  <symbol id="logo" viewBox="0 0 99 99">
<circle fill="#03b9e3" cx="49.5" cy="49.5" r="49.5"/>
<path fill="#FFFFFF" d="M72.6,51.2c-0.4-4-2.9-6.8-5.9-6.8c-0.8,0-1.7,0.2-2.5,0.6c0.7-0.6,1.7-0.7,2.5-0.8l0.1,0
	c0.6-0.1,1.2,0,1.9,0.1l0.2,0.1l0-0.2c0.2-1.1,0.2-2.3,0.1-3.5c-0.2-1.9-0.4-3.5-0.7-5.3c0-0.1-1.3-8.8-7.6-13
	C56.7,19.5,52,19,49.6,19c-0.1,0-0.1,0-0.1,0l-0.1,0c-0.1,0-0.2,0-0.3,0c-1.5,0-6.6,0.2-10.9,3.3c-6.3,4.1-7.7,12.8-7.8,12.9
	c-0.1,0.9-0.3,1.6-0.4,2.4c-0.4,2.4-0.7,4.3-0.2,6.6l0.1,0.2l0.2-0.1c1.1-0.3,2.2-0.1,3.2,0.4c-1.5-0.6-3.3-0.2-4.7,0.9
	c-1.7,1.4-2.8,3.4-3,5.9c-0.1,0.6-0.3,3.9,1.3,7.9c1.3,3.4,4.2,6.8,7.6,9.2c5.9,4.2,12.7,4.5,14.7,4.5l0.2,0l0.3,0.1v-0.1
	c1.2,0,8.4-0.3,14.6-4.7c3.6-2.4,6.4-5.9,7.5-9.2C72.7,56.8,73,54,72.6,51.2z"/>
<path fill="#FFFFFF" d="M34.1,21.7l0.1,0.4l0.3-0.3c1.2-1,5.7-4.3,14.7-4.3c9,0,13.8,3.3,15.1,4.3l0.3,0.3l0-0.4
	c0.1-1.1,0.7-4.8,6.6-9.1l0.2-0.1l-0.1-0.2c-0.4-0.8-4.9-7.8-21.8-7.8h-0.5c-16.9,0-21.6,7-22.1,7.8L27,12.5l0.2,0.1
	C33,16.9,34,20.7,34.1,21.7z"/>
<path fill="#011d23" d="M47.7,46.4c-0.1-0.4-0.2-0.7-0.3-1.1c-0.1-0.2,0-1,0.5-1.3c0.5-0.4,1.2-0.3,1.2-0.3c0,0,0.7,0,1.2,0.3
	c0.5,0.4,0.6,1.1,0.5,1.3c-0.1,0.4-0.1,0.7-0.3,1.1c0.4-0.2,0.7-0.4,0.8-1c0.1-0.3,0-1.3-0.7-1.9c-0.7-0.5-1.5-0.4-1.5-0.4
	c0,0-0.8-0.1-1.5,0.4c-0.8,0.5-0.8,1.6-0.7,1.9C47,45.9,47.3,46.2,47.7,46.4z M67.3,50.4c-0.6,0-1,0.2-1,0.2c-0.1,0-0.1,0.1-0.1,0.2
	c0,0.1,0.1,0.1,0.1,0.1c0,0,0.1,0,0.2,0c0.4,0,1.2,0.1,2,0.8c-1.5,1.4-8.1,6.9-19.3,7c-11.1,0-17.7-5.5-19.3-6.9
	c0.8-0.8,1.7-0.9,2-0.9c0.1,0,0.2,0,0.2,0c0.1,0,0.1,0,0.1-0.1c0-0.1,0-0.1-0.1-0.2c0,0-0.4-0.2-1-0.2c-0.8,0-1.4,0.3-1.9,0.8
	c-1.2,1.3-0.7,3.2-0.7,3.3c0,0.1,0.1,0,0.1,0h0c0.1,0,0.1,0.1,0.1,0c0,0,0.2-1.7,0.8-2.6C32.4,62.7,41.3,65,49.3,65
	c8.1,0,16.7-2.5,19.4-13.1c0.7,0.8,0.9,2.6,0.9,2.6c0,0.1,0.1,0,0.1,0h0c0.1,0,0.1,0.1,0.1,0c0-0.1,0.5-2-0.7-3.3
	C68.7,50.7,68,50.4,67.3,50.4z M54.3,63.8c-3.7,1-8,0.4-10.3,0c0,0-1.4-0.2-1.4-1.4c0-1.6,5.6-2.6,7.7,0.9c0,0,0.5-0.4-0.7-1.6l0,0
	c2.5-1.4,6.1-0.5,6.1,0.7C55.6,63.6,54.3,63.8,54.3,63.8z M45.8,50.5L45.8,50.5c0.3,0,0.6,0.2,0.9,0.2c1.2,0,2.2-0.8,2.2-1.9
	c0-1.1-1-1.9-2.2-1.9c-0.2,0-0.3,0-0.5,0.1c-0.4,0-0.8,0.1-1.3,0.2c-1.2,0.2-2.8,0.4-4.2,0.4c-2.2,0-3.5-0.5-4-1.6
	c-0.2-0.4-0.1-0.9,0.1-1.3c0.2-0.3,0.5-0.5,0.9-0.5l0,0c0.4,0,1.2,0.3,1.2,1.1c0,0.1,0,0.1,0.1,0.1c0.1,0,0.1,0,0.2-0.1
	c0,0,0.3-0.7,0-1.3c-0.3-0.4-0.8-0.5-1.6-0.5h0c-0.6,0-1.2,0.2-1.6,0.7c-0.5,0.7-0.7,1.5-0.5,2.4C36.2,49.3,39.6,50.5,45.8,50.5z
	 M46.7,47.6c1.1,0,1.2,0.9,1.2,0.9S47.6,48,46.7,48c-0.9,0-3,0.6-5,0.7c-2.8,0-4-0.9-4-0.9C41.7,49.2,45.5,47.6,46.7,47.6z
	 M49.7,48.9c0,1.1,1,1.9,2.2,1.9c0.3,0,0.6,0,0.9,0c6.2,0,9.6-1.4,10.3-4.1c0.2-0.9,0-1.9-0.5-2.5c-0.4-0.5-0.9-0.7-1.6-0.7h0
	c-0.8,0-1.3,0.1-1.6,0.5c-0.4,0.6,0,1.3,0,1.3c0,0.1,0.1,0.1,0.2,0.1c0.1,0,0.1,0.1,0.1,0c0-0.8,0.8-0.9,1.2-0.9h0
	c0.4,0,0.7,0,0.9,0.3c0.2,0.4,0.3,0.8,0.1,1.2c-0.4,1.1-1.7,1.5-3.9,1.5c-1.4,0-3-0.2-4.2-0.4c-0.5-0.1-0.9-0.1-1.2-0.2
	C50.9,46.7,49.7,47.7,49.7,48.9z M51.9,47.6c1.2,0,5,1.6,8.9,0.2c0,0-1.2,1-4,0.9c-1.9,0-4.1-0.7-5-0.7c-0.9,0-1.2,0.5-1.2,0.5
	S50.7,47.6,51.9,47.6z M39.9,40.4c2,0,3.7-3.4,3.7-7.7c0-4.2-1.7-7.7-3.7-7.7c-2,0-3.7,3.4-3.7,7.7C36.2,36.9,37.8,40.4,39.9,40.4z
	 M58.1,40.4c2,0,3.7-3.4,3.7-7.7c0-4.2-1.7-7.7-3.7-7.7c-2,0-3.7,3.4-3.7,7.7C54.4,36.9,56.1,40.4,58.1,40.4z M85.5,57.4
	c-0.2,0-0.2,0-0.2,0c-0.1,0-0.1,0.1-0.1,0.1c0,0.1,0.1,0.1,0.1,0.1c1,0,2.4,2.4,2.4,4.7c0,1.2-0.4,2.3-1.1,3
	c-0.9,0.9-2.3,1.4-4.2,1.4c-1.9,0-3.1-0.4-3.9-1.2c-1.3-1.5-0.9-4.5-0.4-8.2c0.6-4.1,1.2-9.3,0-15.1c-2-9.6-8.2-15.5-12.5-18.2
	c0.1-1.4,1-6.5,7.3-11.3c0.1,0,0.1,0,0-0.1c0-0.1-4.2-9.2-23.3-9.2h-0.5c-19,0-23.2,9.1-23.3,9.2c0,0.1,0,0.1,0,0.1
	c6.3,4.8,7.1,9.9,7.3,11.3c-4.3,2.7-10.5,8.6-12.5,18.2c-1.2,5.8-0.5,10.9,0,15.1c0.5,3.7,0.9,6.7-0.4,8.2c-0.7,0.8-2,1.2-3.9,1.2
	c-1.9,0-3.3-0.5-4.2-1.4c-0.7-0.7-1.1-1.8-1.1-3c0-2.3,1.4-4.7,2.4-4.7c0.1,0,0.1-0.1,0.1-0.1c0-0.1-0.1-0.1-0.1-0.1
	c0,0-0.1,0-0.3,0c-1.4,0-8.1,0.4-8.1,9.1c0,4.1,2.3,7.4,6.8,9.5c3.8,1.8,8,2.3,9.9,2.3c3.4,0,10.9-1.4,15.6-6.6
	c0.8,0.4,1.6,0.7,2.3,1c0.9,0.6,2.6,1.8,4.3,4c2.3,3,5.1,8.6,5.1,18l0,0.2c0,0.1,0.1,0.1,0.1,0.1c0.1,0,0.1-0.1,0.1-0.1l0-0.2
	c0-9.4,2.8-14.9,5.1-17.9c2.5-3.3,5.1-4.4,5.1-4.4c0,0,0.1,0,0.1-0.1c0.5-0.2,1-0.4,1.5-0.6c4.7,5.3,12.3,6.8,15.8,6.8
	c1.9,0,6.1-0.5,9.9-2.3c4.4-2.1,6.8-5.4,6.8-9.5C93.6,57.9,86.9,57.4,85.5,57.4z M69.8,10.6c-0.6,0.1-1.2,0.2-2,0.6
	c-0.5,0.3-2.2,1.2-3.3,2.5c-0.1,0.2-0.3,0.3-0.4,0.5c0,0,0,0,0,0l-0.1,0c-0.3-0.1-0.7-0.3-0.9-0.4c-0.5-0.2-0.9-0.3-0.9-0.3
	c0,0-0.4-0.1-0.9-0.3L60.8,13l-0.1,0c0.1-0.2,0.2-0.5,0.4-0.7c0.8-1.4,2.1-2.5,2.6-2.9c0.8-0.6,1.3-1,2-1.6
	C67.6,8.8,68.9,9.8,69.8,10.6z M59.9,5.7c-0.7,0.3-1.2,0.7-1.8,1.4c-0.4,0.4-1.4,2-1.9,3.6l-0.2,0.6l0,0.1c-0.3-0.1-0.6-0.1-0.9-0.1
	c-0.6-0.1-0.9-0.1-0.9-0.1s-0.4,0-0.9-0.1c-0.3,0-0.6-0.1-1-0.1l-0.6,0l-0.2,0c-0.1-1.6,0.1-3.2,0.2-3.8c0.1-1,0.2-1.6,0.3-2.5
	C55,4.8,57.7,5.2,59.9,5.7z M46.6,4.7c0.1,0.9,0.1,1.5,0.3,2.5c0.1,0.6,0.2,2.2,0.2,3.8l-0.2,0l-0.6,0c-0.4,0-0.7,0.1-1,0.1
	c-0.6,0.1-0.9,0.1-0.9,0.1s-0.4,0-0.9,0.1c-0.3,0-0.6,0.1-0.9,0.1l0-0.1l-0.2-0.6c-0.5-1.6-1.5-3.2-1.9-3.6
	c-0.6-0.7-1.1-1.1-1.7-1.4C40.9,5.3,43.5,4.9,46.6,4.7z M32.8,7.8c0.7,0.6,1.1,0.9,2,1.6c0.5,0.3,1.8,1.5,2.6,2.9
	c0.1,0.3,0.3,0.5,0.4,0.8l-0.1,0l-0.5,0.1c-0.6,0.2-0.9,0.3-0.9,0.3c0,0-0.4,0.1-0.9,0.3c-0.3,0.1-0.6,0.2-0.9,0.4l-0.1,0
	c0,0,0,0,0,0c-0.1-0.2-0.2-0.3-0.4-0.5c-1.1-1.3-2.7-2.3-3.2-2.6c-0.7-0.4-1.3-0.5-1.9-0.6C29.7,9.7,31,8.8,32.8,7.8z M27.3,12.4
	c0.1-0.2,0.6-0.9,1.4-1.6c0.6,0.3,1,0.6,1.8,1c0.5,0.3,2.1,1.2,3.1,2.4c0.1,0.1,0.2,0.3,0.4,0.5c0.2,0.1-0.3,0,0.5,0.3l0.3-0.1
	c0.3-0.1,0.7-0.3,0.9-0.4c0.5-0.2,0.9-0.3,0.9-0.3c0,0,0.4-0.1,0.9-0.3l0.4-0.1l0.2-0.1l0.1,0l0.1,0l0,0c-0.2,0.4,0.3-0.5,0.3-0.4
	l0,0l0,0l0,0l0,0c-0.1-0.4-0.3-0.8-0.5-1.1c-0.8-1.5-2.2-2.8-2.7-3.1c-0.9-0.6-1.5-0.9-2.3-1.1c1.5-0.7,3.3-1.4,5.5-2
	c0.5,0.5,0.8,1,1.4,1.7c0.4,0.4,1.3,1.9,1.8,3.4l0.2,0.6l0.1,0.3l0,0.1c0.7,0.5,0.2,0.1,0.4,0.2l0.1,0c0.4-0.1,0.7-0.1,1-0.1
	c0.6-0.1,0.9-0.1,0.9-0.1s0.4,0,0.9-0.1c0.3,0,0.6-0.1,1-0.1l0.6,0l0.3,0l0.1,0c0.7-0.6,0.2-0.3,0.3-0.4c0.1-1.7-0.1-3.5-0.2-4.1
	c-0.2-1-0.4-1.7-0.8-2.5c0.8,0,1.7-0.1,2.6-0.1h0.5c0.8,0,1.5,0.1,2.2,0.1C51.4,5.4,51.2,6,51,7.1c-0.1,0.6-0.3,2.4-0.2,4.1
	c0.2,0.2-0.3-0.1,0.3,0.4l0.1,0l0.3,0l0.6,0c0.4,0,0.7,0.1,1,0.1c0.6,0.1,0.9,0.1,0.9,0.1s0.4,0,0.9,0.1c0.3,0,0.6,0.1,1,0.1l0.1,0
	c0.2-0.1-0.3,0.3,0.4-0.2l0-0.1l0.1-0.3l0.2-0.6c0.5-1.5,1.4-3,1.8-3.4c0.6-0.7,0.9-1.2,1.5-1.8c2.3,0.6,4.1,1.3,5.6,2
	c-0.9,0.2-1.5,0.4-2.4,1.1c-0.5,0.3-1.9,1.6-2.8,3.1c-0.2,0.4-0.4,0.7-0.5,1.1l0,0l-0.3,0l-0.2,0v0c0-0.1,1,0.4,0.7,0.4h0l0.1,0
	l0.1,0l0.2,0.1l0.4,0.1c0.5,0.2,0.9,0.3,0.9,0.3c0,0,0.3,0.1,0.9,0.3c0.3,0.1,0.6,0.2,0.9,0.4l0.3,0.1c0.8-0.3,0.3-0.2,0.6-0.3
	c0.1-0.1,0.2-0.3,0.4-0.5c1-1.2,2.6-2.1,3.1-2.4c0.8-0.4,1.3-0.7,1.9-1c0.7,0.8,1.1,1.4,1.2,1.6c-3.4,2.5-5.1,4.8-5.9,6.5
	c-1.1-0.8-2-1.3-3.6-2c-1-0.4-4-1.5-6.9-1.9c-2.9-0.5-5.5-0.5-5.5-0.5c0,0-2.7-0.1-5.5,0.5c-2.9,0.5-5.9,1.5-6.9,1.9
	c-1.6,0.7-2.5,1.2-3.6,2C32.4,17.2,30.6,14.9,27.3,12.4z M38.1,13C38.1,13,38.1,13,38.1,13C38.1,13,38.1,13,38.1,13L38.1,13z
	 M65.2,19c-0.6,1.3-0.7,2.2-0.8,2.7c-1.1-0.9-6-4.4-15.2-4.4c-9.2,0-13.8,3.5-14.9,4.4c-0.1-0.5-0.3-1.4-0.9-2.7
	c1.2-0.6,2.2-0.9,3.8-1.6c0.9-0.4,3.9-1.5,6.7-1.9c2.8-0.5,5.4-0.4,5.4-0.4c0,0,2.6,0,5.4,0.5c2.8,0.5,5.8,1.5,6.7,1.9
	C63,18.1,64,18.5,65.2,19z M71.6,59.1c-1.1,3.3-3.9,6.7-7.5,9.1c-2.3,1.6-4.7,2.7-6.9,3.4c-3.3-0.9-4.7-3.3-5.1-4.3
	c0.5,0.1,0.8,0.1,0.9,0.2c0.5,0.1,0.9,0.1,1.4,0.1c0.1,0,0.1,0,0.1-0.1c0-0.1,0-0.1,0-0.2c-0.4-0.3-0.7-0.5-1.3-0.7
	c-0.5-0.2-3-0.5-3.6-0.5c0,0-0.1,0-0.1,0c0,0-0.1,0-0.1,0c-0.6,0-3.1,0.2-3.6,0.5c-0.6,0.1-0.9,0.3-1.3,0.7c0,0-0.1,0.1,0,0.2
	c0,0.1,0.1,0.1,0.1,0.1c0.5,0,0.8,0,1.4-0.1c0.1,0,0.3-0.1,0.6-0.1c-0.5,1.1-1.9,3.5-5.3,4.3c-2.1-0.7-4.5-1.7-6.7-3.2
	c-3.4-2.3-6.2-5.7-7.5-9.1c-1.6-4-1.4-7.2-1.3-7.8c0.2-2.4,1.2-4.4,2.9-5.7c0.9-0.7,2-1.1,3-1.1c0.9,0,1.8,0.3,2.5,0.8
	c0.1,0,0.1,0,0.2,0c0-0.1,0-0.1,0-0.2c-0.9-0.9-2-1.3-3.3-1.3c-0.4,0-0.8,0-1.1,0.1c-0.5-2.2-0.2-4.1,0.2-6.5
	c0.1-0.8,0.3-1.6,0.4-2.4c0-0.1,1.4-8.7,7.7-12.7c0.6-0.4,1.2-0.8,1.8-1.1c2.7-1,5.9-1.8,9.1-1.8c3.5,0,7,1,9.9,2.1
	c0.5,0.3,1,0.6,1.5,0.9c6.2,4.1,7.5,12.7,7.5,12.8c0.3,1.8,0.5,3.5,0.7,5.3c0.2,1.2,0.2,2.3-0.1,3.5c-0.6-0.2-1.3-0.2-2-0.1l-0.1,0
	c-1,0.1-2.3,0.3-3,1.3c0,0.1,0,0.1,0,0.2c0,0,0.1,0.1,0.2,0c1-0.5,1.9-0.8,2.9-0.8c2.9,0,5.3,2.7,5.7,6.6
	C72.7,54,72.4,56.8,71.6,59.1z"/>
	</symbol>
</svg>

